<?xml version="1.0" encoding="iso-8859-1"?>
<!-- Generator: Adobe Illustrator 18.0.0, SVG Export Plug-In . SVG Version: 6.00 Build 0)  -->
<!DOCTYPE svg PUBLIC "-//W3C//DTD SVG 1.1//EN" "http://www.w3.org/Graphics/SVG/1.1/DTD/svg11.dtd">
<svg version="1.1" id="Capa_1" xmlns="http://www.w3.org/2000/svg" xmlns:xlink="http://www.w3.org/1999/xlink" x="0px" y="0px"
	 viewBox="0 0 45.711 45.711" style="enable-background:new 0 0 45.711 45.711;" xml:space="preserve">
<g>
	<path d="M44.211,0H1.5C0.671,0,0,0.672,0,1.5v42.711c0,0.828,0.671,1.5,1.5,1.5h42.711c0.829,0,1.5-0.672,1.5-1.5V1.5
		C45.711,0.672,45.04,0,44.211,0z M42.711,42.711H3V3h39.711V42.711z"/>
	<path d="M10.647,39.063c2.209,0,4-1.791,4-4v-8.208h16.417v8.208c0,2.209,1.791,4,4,4c2.209,0,4-1.791,4-4V10.647
		c0-2.209-1.791-4-4-4c-2.209,0-4,1.791-4,4v8.208H14.647v-8.208c0-2.209-1.791-4-4-4s-4,1.791-4,4v24.416
		C6.647,37.272,8.438,39.063,10.647,39.063z"/>
</g>
<g>
</g>
<g>
</g>
<g>
</g>
<g>
</g>
<g>
</g>
<g>
</g>
<g>
</g>
<g>
</g>
<g>
</g>
<g>
</g>
<g>
</g>
<g>
</g>
<g>
</g>
<g>
</g>
<g>
</g>
</svg>
