<?xml version="1.0" encoding="iso-8859-1"?>
<!-- Generator: Adobe Illustrator 17.1.0, SVG Export Plug-In . SVG Version: 6.00 Build 0)  -->
<!DOCTYPE svg PUBLIC "-//W3C//DTD SVG 1.1//EN" "http://www.w3.org/Graphics/SVG/1.1/DTD/svg11.dtd">
<svg version="1.1" id="Capa_1" xmlns="http://www.w3.org/2000/svg" xmlns:xlink="http://www.w3.org/1999/xlink" x="0px" y="0px"
	 viewBox="0 0 511 511" style="enable-background:new 0 0 511 511;" xml:space="preserve">
<g>
	<path d="M375.499,136h-15.998c-4.142,0-7.5,3.358-7.5,7.5s3.358,7.5,7.5,7.5h15.998c4.142,0,7.5-3.358,7.5-7.5
		S379.641,136,375.499,136z"/>
	<path d="M447,127.5c0-12.958-10.542-23.5-23.5-23.5h-272c-12.958,0-23.5,10.542-23.5,23.5c0,7.048,3.123,13.377,8.053,17.688
		c0.053,0.228,0.114,0.456,0.189,0.682C155.46,203.588,205.214,244.553,264,253.265v26.376c-3.055-0.866-6.131-1.737-9.23-2.616
		c-35.165-9.961-71.527-20.263-94.703-27.621c-23.41-7.433-43.573-22.214-58.308-42.744C86.87,185.916,79,161.31,79,135.5
		C79,69.056,133.056,15,199.5,15c21.587,0,42.465,5.688,60.882,16.5c-2.78,4.693-4.382,10.162-4.382,16
		c0,17.369,14.131,31.5,31.5,31.5S319,64.869,319,47.5S304.869,16,287.5,16c-5.947,0-11.514,1.658-16.264,4.534
		C249.739,7.087,225.057,0,199.5,0C124.785,0,64,60.785,64,135.5c0,28.967,8.843,56.598,25.572,79.906
		c16.634,23.177,39.441,39.876,65.956,48.295c23.4,7.43,59.877,17.764,95.154,27.757c4.489,1.271,8.931,2.53,13.319,3.774V440h-43.5
		c-6.893,0-12.5,5.607-12.5,12.5v51c0,4.142,3.358,7.5,7.5,7.5h144c4.142,0,7.5-3.358,7.5-7.5v-51c0-6.893-5.607-12.5-12.5-12.5H311
		v-17.025c0.166,0.011,0.331,0.025,0.5,0.025c35.014,0,63.5-28.486,63.5-63.5c0-27.647-17.957-52.459-43.667-60.338
		c-6.025-1.846-12.872-3.881-20.333-6.061v-39.836c58.786-8.712,108.54-49.677,127.757-107.396c0.075-0.226,0.136-0.454,0.189-0.682
		C443.877,140.877,447,134.548,447,127.5z M304,47.5c0,9.098-7.402,16.5-16.5,16.5S271,56.598,271,47.5
		c0-4.427,1.762-8.443,4.609-11.41c0.693-0.434,1.32-0.99,1.855-1.657C280.249,32.29,283.723,31,287.5,31
		C296.598,31,304,38.402,304,47.5z M352,496H223v-41h129V496z M279,440V299.497c5.868,1.673,11.555,3.301,17,4.872V440H279z
		 M326.938,313.504C346.404,319.469,360,338.383,360,359.5c0,26.743-21.757,48.5-48.5,48.5c-0.169,0-0.334,0.014-0.5,0.025v-99.293
		C316.776,310.431,322.126,312.03,326.938,313.504z M296,288.759c-5.47-1.572-11.159-3.196-17-4.858v-29.132
		c2.819,0.149,5.652,0.231,8.5,0.231s5.681-0.083,8.5-0.231V288.759z M287.5,240c-58.737,0-111.06-35.356-133.333-89H327.5
		c4.142,0,7.5-3.358,7.5-7.5s-3.358-7.5-7.5-7.5h-176c-4.687,0-8.5-3.813-8.5-8.5s3.813-8.5,8.5-8.5h272c4.687,0,8.5,3.813,8.5,8.5
		s-3.813,8.5-8.5,8.5h-16c-4.142,0-7.5,3.358-7.5,7.5s3.358,7.5,7.5,7.5h13.332C398.56,204.644,346.237,240,287.5,240z"/>
</g>
<g>
</g>
<g>
</g>
<g>
</g>
<g>
</g>
<g>
</g>
<g>
</g>
<g>
</g>
<g>
</g>
<g>
</g>
<g>
</g>
<g>
</g>
<g>
</g>
<g>
</g>
<g>
</g>
<g>
</g>
</svg>
